# xmcd
#
# Track frame offsets:
# 150
# 6133
# 14240
# 40751
# 51113
# 66279
# 82599
# 93057
# 99916
# 117828
# 138562
# 157103
# 170535
# 186970
# 202288
# 217262
# 233254
# 251041
# 265815
# 280391
# 288100
# 305385
# 321514
#
# Disc length: 4545 seconds
#
#
# Revision: 0
# Processed by: cddbd v1.5.1PL2 Copyright (c) Steve Scherf et al.
# Submitted via: FreeRIP 2.945 
#
DISCID=4b11bf17
DTITLE=hosted by copywrite - hiphop disciples vol17
DYEAR=1900
DGENRE=Hip-Hop
TTITLE0=Intro
TTITLE1=hi hop disciples freestyle
TTITLE2=freestyle(JRWriter)
TTITLE3=Freestyle(JMillz)
TTITLE4=Get The Money
TTITLE5=Who Im IS
TTITLE6=New Jerz Shit(Copywrite)
TTITLE7=Freestyle(Doe)
TTITLE8=Stronghold(PoisonPen)
TTITLE9=HHG Freestyle(Copywrite)
TTITLE10=Bad News Born
TTITLE11=Cruise(EdgarAllanFloe)
TTITLE12=Keep It On(SilentMajority)
TTITLE13=OHIO(Copywrite)
TTITLE14=All I Need(Copywrite)
TTITLE15=The Colour Of Murder
TTITLE16=Rugged Intellect(RasKass)
TTITLE17=Trouble(Papoose)
TTITLE18=33 Strategies Of War
TTITLE19=Professional Style(AZ)
TTITLE20=international odyssey(wordsworth)
TTITLE21=The Professional(BlackOpz)
TTITLE22=This Joint(BlackElephant)
EXTD=
EXTT0=
EXTT1=
EXTT2=
EXTT3=
EXTT4=
EXTT5=
EXTT6=
EXTT7=
EXTT8=
EXTT9=
EXTT10=
EXTT11=
EXTT12=
EXTT13=
EXTT14=
EXTT15=
EXTT16=
EXTT17=
EXTT18=
EXTT19=
EXTT20=
EXTT21=
EXTT22=
PLAYORDER=
